Patient4_TMGait_0pt2_02_left_20_GRF.mot
version=1
nRows=77
nColumns=19
inDegrees=no
endheader
time	F1x	F1y	F1z	M1x	M1y	M1z	F2x	F2y	F2z	M2x	M2y	M2z	EC1x	EC1y	EC1z	EC2x	EC2y	EC2z
45.26	-3.7781	26.6977	4.6686	-8.7452	-6.3377	29.9521	-9.8606	737.2814	-49.3522	259.9569	62.339	869.8662	-0.0592	0.0182	-0.0073	-0.0462	0.0165	0.9585
45.2826	-2.9732	20.1429	3.6103	-6.5831	-4.9228	22.5324	-10.8502	748.6604	-49.455	264.2165	63.1395	882.5789	-0.0592	0.0182	-0.0073	-0.0462	0.0165	0.9585
45.3051	-2.2674	13.7278	2.5801	-4.4835	-3.5724	15.3009	-12.4779	764.3423	-49.3613	270.0697	63.8358	900.0285	-0.0592	0.0182	-0.0073	-0.0462	0.0165	0.9585
45.3277	-1.6701	8.1722	1.6821	-2.6754	-2.4034	9.0591	-14.5995	784.3397	-49.0387	277.5124	64.3096	922.1279	-0.0592	0.0182	-0.0073	-0.0462	0.0165	0.9585
45.3503	-1.2123	3.862	0.97648	-1.2769	-1.4905	4.2282	-16.8632	807.7736	-48.5171	286.2075	64.4603	947.7335	-0.0592	0.0182	-0.0073	-0.0462	0.0165	0.9585
45.3729	-0.89692	0.83692	0.46997	-0.29647	-0.84145	0.84099	-18.8203	832.4381	-47.8666	295.3298	64.2122	974.2034	-0.0592	0.0182	-0.0073	-0.0462	0.0165	0.9585
45.3954	-0.70505	-1.0687	0.13959	0.3206	-0.42461	-1.2954	-20.084	854.8487	-47.1553	303.591	63.5132	997.513	-0.0592	0.0182	-0.0073	-0.0462	0.0165	0.9585
45.418	-0.61063	-2.108	-0.051194	0.65685	-0.19191	-2.4678	-20.4269	871.0594	-46.4066	309.542	62.3149	1013.2125	-0.0592	0.0182	-0.0073	-0.0462	0.0165	0.9585
45.4406	-0.58808	-2.5478	-0.14212	0.79978	-0.093795	-2.9776	-19.7704	877.9508	-45.5812	312.0431	60.5558	1017.8794	-0.0592	0.0182	-0.0073	-0.0462	0.0165	0.9585
45.4631	-0.61459	-2.6265	-0.16636	0.82819	-0.085872	-3.0996	-18.1428	874.2827	-44.6036	310.642	58.185	1010.2757	-0.0592	0.0182	-0.0073	-0.0462	0.0165	0.9585
45.4857	-0.67283	-2.5424	-0.14894	0.80715	-0.13187	-3.0583	-15.6493	860.9555	-43.4229	305.6627	55.2216	991.6045	-0.0592	0.0182	-0.0073	-0.0462	0.0165	0.9585
45.5083	-0.75175	-2.4521	-0.10766	0.78732	-0.20763	-3.0241	-12.4445	840.5176	-42.0578	298.0242	51.7913	964.9194	-0.0592	0.0182	-0.0073	-0.0462	0.0165	0.9585
45.5309	-0.83863	-2.4687	-0.055866	0.8059	-0.29724	-3.1204	-8.7207	816.3048	-40.6041	288.9304	48.1187	934.1301	-0.0592	0.0182	-0.0073	-0.0462	0.0165	0.9585
45.5534	-0.91907	-2.6659	-0.0037459	0.88764	-0.38782	-3.4249	-4.6953	791.5752	-39.2014	279.5612	44.4767	903.012	-0.0592	0.0182	-0.0073	-0.0462	0.0165	0.9585
45.576	-0.97688	-3.0733	0.042681	1.0449	-0.46812	-3.9685	-0.60128	768.915	-37.9813	270.8612	41.1214	874.5363	-0.0592	0.0182	-0.0073	-0.0462	0.0165	0.9585
45.5986	-0.99465	-3.669	0.077042	1.2731	-0.52169	-4.7239	3.3241	750.0349	-37.0362	263.4676	38.2523	850.6475	-0.0592	0.0182	-0.0073	-0.0462	0.0165	0.9585
45.6211	-0.95064	-4.3642	0.086906	1.5442	-0.52222	-5.5784	6.8817	735.8392	-36.4166	257.7328	35.9969	832.3437	-0.0592	0.0182	-0.0073	-0.0462	0.0165	0.9585
45.6437	-0.81904	-4.984	0.054532	1.7992	-0.43617	-6.3025	9.9327	726.6045	-36.1412	253.7839	34.4196	819.8783	-0.0592	0.0182	-0.0073	-0.0462	0.0165	0.9585
45.6663	-0.56881	-5.2427	-0.042631	1.9365	-0.22494	-6.5215	12.4029	722.0988	-36.221	251.5653	33.5472	812.9083	-0.0592	0.0182	-0.0073	-0.0462	0.0165	0.9585
45.6889	-0.1682	-4.7209	-0.2305	1.8021	0.15276	-5.6963	14.2794	721.6497	-36.6553	250.863	33.3655	810.5866	-0.0592	0.0182	-0.0073	-0.0462	0.0165	0.9585
45.7114	0.40285	-2.8607	-0.53097	1.1873	0.73211	-3.1217	15.5899	724.2331	-37.4078	251.3345	33.8036	811.6766	-0.0592	0.0182	-0.0073	-0.0462	0.0165	0.9585
45.734	1.1406	1.0132	-0.95375	-0.16322	1.5258	2.0409	16.3682	728.5419	-38.399	252.5342	34.7401	814.645	-0.0592	0.0182	-0.0073	-0.0462	0.0165	0.9585
45.7566	2.0002	7.6221	-1.4841	-2.5295	2.5007	10.6611	16.653	733.1004	-39.5031	253.9535	36.0056	817.7957	-0.0592	0.0182	-0.0073	-0.0462	0.0165	0.9585
45.7791	2.8732	17.6074	-2.0677	-6.1726	3.5517	23.4839	16.5211	736.4309	-40.5557	255.0791	37.378	819.4529	-0.0592	0.0182	-0.0073	-0.0462	0.0165	0.9585
45.8017	3.587	31.4672	-2.5588	-11.2984	4.4294	41.0563	16.108	737.158	-41.3719	255.4244	38.5976	818.0863	-0.0592	0.0182	-0.0073	-0.0462	0.0165	0.9585
45.8243	3.9206	49.4761	-2.696	-18.0165	4.7223	63.6562	15.5774	734.0265	-41.7847	254.5304	39.4167	812.3369	-0.0592	0.0182	-0.0073	-0.0462	0.0165	0.9585
45.8469	3.6849	71.5457	-2.1753	-26.2836	3.9796	91.1485	15.0703	725.9163	-41.6789	251.9707	39.6535	801.0467	-0.0592	0.0182	-0.0073	-0.0462	0.0165	0.9585
45.8694	2.745	97.0104	-0.77811	-35.8233	1.8748	122.7357	14.6557	711.9774	-41.011	247.4022	39.2272	783.4113	-0.0592	0.0182	-0.0073	-0.0462	0.0165	0.9585
45.892	1.0578	124.362	1.4825	-46.0401	-1.59	156.6235	14.2986	691.8204	-39.8197	240.6373	38.1827	759.1654	-0.0592	0.0182	-0.0073	-0.0462	0.0165	0.9585
45.9146	-1.2284	151.8706	4.2786	-56.2691	-5.9492	190.7451	13.9217	665.7364	-38.2439	231.7307	36.6931	728.7657	-0.0592	0.0182	-0.0073	-0.0462	0.0165	0.9585
45.9371	-3.9019	178.8943	7.1696	-66.2614	-10.5822	224.356	13.5172	634.8363	-36.49	221.0414	34.9877	693.4774	-0.0592	0.0182	-0.0073	-0.0462	0.0165	0.9585
45.9597	-6.766	205.8098	9.8843	-76.1475	-15.0841	257.9428	13.1295	600.8317	-34.7258	209.1676	33.2438	655.1377	-0.0592	0.0182	-0.0073	-0.0462	0.0165	0.9585
45.9823	-9.621	233.1166	12.3797	-86.1007	-19.3287	292.1011	12.7805	565.5183	-33.0393	196.7627	31.5618	615.6383	-0.0592	0.0182	-0.0073	-0.0462	0.0165	0.9585
46.0049	-12.2447	260.9415	14.7492	-96.1552	-23.3444	326.9209	12.4382	530.2983	-31.4791	184.3537	30.0123	576.4462	-0.0592	0.0182	-0.0073	-0.0462	0.0165	0.9585
46.0274	-14.4325	289.0668	17.0901	-106.2253	-27.1702	362.0335	12.0451	495.9673	-30.0666	172.255	28.6384	538.3877	-0.0592	0.0182	-0.0073	-0.0462	0.0165	0.9585
46.05	-16.0474	317.1907	19.4433	-116.2085	-30.8044	396.9394	11.5766	462.8215	-28.7746	160.6003	27.4194	501.7511	-0.0592	0.0182	-0.0073	-0.0462	0.0165	0.9585
46.0726	-17.029	345.1854	21.8122	-126.0772	-34.2277	431.342	11.0767	430.8538	-27.5331	149.4069	26.2685	466.4964	-0.0592	0.0182	-0.0073	-0.0462	0.0165	0.9585
46.0951	-17.4112	373.1579	24.2042	-135.8957	-37.456	465.2489	10.6662	399.8659	-26.2617	138.6131	25.0619	432.3869	-0.0592	0.0182	-0.0073	-0.0462	0.0165	0.9585
46.1177	-17.3277	401.3009	26.6257	-145.7643	-40.539	498.83	10.541	369.5131	-24.8943	128.0943	23.663	399.0412	-0.0592	0.0182	-0.0073	-0.0462	0.0165	0.9585
46.1403	-16.9849	429.7203	29.0541	-155.7556	-43.5254	532.2194	10.9315	339.3839	-23.3986	117.6928	21.9538	366.0138	-0.0592	0.0182	-0.0073	-0.0462	0.0165	0.9585
46.1629	-16.6321	458.3528	31.4176	-165.8815	-46.42	565.4056	12.0401	309.0999	-21.768	107.2578	19.8473	332.9012	-0.0592	0.0182	-0.0073	-0.0462	0.0165	0.9585
46.1854	-16.528	486.9984	33.5933	-176.0997	-49.1688	598.2517	13.9649	278.3918	-19.991	96.6773	17.2915	299.4226	-0.0592	0.0182	-0.0073	-0.0462	0.0165	0.9585
46.208	-16.8941	515.414	35.4569	-186.3404	-51.7001	630.5743	16.6355	247.1348	-18.0398	85.8945	14.2814	265.4574	-0.0592	0.0182	-0.0073	-0.0462	0.0165	0.9585
46.2306	-17.8443	543.3662	36.953	-196.5193	-53.9807	662.1759	19.7815	215.359	-15.8891	74.9134	10.8858	231.0506	-0.0592	0.0182	-0.0073	-0.0462	0.0165	0.9585
46.2531	-19.3472	570.6518	38.1347	-206.5455	-56.0482	692.8484	22.9328	183.2896	-13.5549	63.8106	7.2823	196.4489	-0.0592	0.0182	-0.0073	-0.0462	0.0165	0.9585
46.2757	-21.2331	597.1455	39.1466	-216.3444	-57.9968	722.4391	25.4666	151.4151	-11.1223	52.7555	3.7691	162.175	-0.0592	0.0182	-0.0073	-0.0462	0.0165	0.9585
46.2983	-23.2387	622.8289	40.1844	-225.8679	-59.945	750.9044	26.7508	120.5272	-8.7351	42.0231	0.71102	129.0619	-0.0592	0.0182	-0.0073	-0.0462	0.0165	0.9585
46.3209	-25.058	647.7235	41.4634	-235.0721	-62.0191	778.2499	26.3421	91.667	-6.5444	31.9773	-1.5782	98.1921	-0.0592	0.0182	-0.0073	-0.0462	0.0165	0.9585
46.3434	-26.3981	671.7771	43.1575	-243.8854	-64.3052	804.4228	24.1303	65.9433	-4.6594	23.0096	-2.9351	70.7116	-0.0592	0.0182	-0.0073	-0.0462	0.0165	0.9585
46.366	-27.0624	694.8228	45.3365	-252.2106	-66.808	829.2824	20.3801	44.2545	-3.1238	15.4404	-3.3909	47.5508	-0.0592	0.0182	-0.0073	-0.0462	0.0165	0.9585
46.3886	-26.9965	716.782	47.9267	-260.01	-69.4205	852.8212	15.6912	27.0799	-1.9357	9.4424	-3.1405	29.211	-0.0592	0.0182	-0.0073	-0.0462	0.0165	0.9585
46.4111	-26.2896	738.0076	50.7132	-267.4354	-71.9248	875.5308	10.838	14.4312	-1.0706	5.0228	-2.469	15.7018	-0.0592	0.0182	-0.0073	-0.0462	0.0165	0.9585
46.4337	-25.1739	759.4921	53.394	-274.8999	-74.0534	898.6079	6.4923	5.9172	-0.48751	2.0457	-1.6484	6.6054	-0.0592	0.0182	-0.0073	-0.0462	0.0165	0.9585
46.4563	-23.9196	782.5408	55.6858	-282.9382	-75.5774	923.5393	3.0247	0.83033	-0.13359	0.26386	-0.86401	1.1711	-0.0592	0.0182	-0.0073	-0.0462	0.0165	0.9585
46.4789	-22.7083	807.9408	57.4285	-291.8857	-76.3878	951.1256	0.51619	-1.683	0.048811	-0.62008	-0.21051	-1.5086	-0.0592	0.0182	-0.0073	-0.0462	0.0165	0.9585
46.5014	-21.5917	835.1196	58.608	-301.5614	-76.5076	980.5336	-1.1273	-2.4425	0.11294	-0.89174	0.28083	-2.3131	-0.0592	0.0182	-0.0073	-0.0462	0.0165	0.9585
46.524	-20.5192	861.7562	59.3237	-311.1303	-76.063	1008.9124	-2.0813	-2.14	0.10212	-0.79146	0.61934	-1.9818	-0.0592	0.0182	-0.0073	-0.0462	0.0165	0.9585
46.5466	-19.3485	884.2177	59.6989	-319.2725	-75.1765	1031.9357	-2.5387	-1.307	0.048506	-0.50315	0.83552	-1.0835	-0.0592	0.0182	-0.0073	-0.0462	0.0165	0.9585
46.5691	-17.8482	898.5904	59.7889	-324.5668	-73.8568	1044.9984	-2.6734	-0.31994	-0.025641	-0.15729	0.96495	-0.023421	-0.0592	0.0182	-0.0073	-0.0462	0.0165	0.9585
46.5917	-15.7627	901.8566	59.5379	-325.924	-71.9671	1044.5917	-2.6219	0.57156	-0.10396	0.1582	1.0368	0.92811	-0.0592	0.0182	-0.0073	-0.0462	0.0165	0.9585
46.6143	-12.8764	892.8084	58.813	-322.9176	-69.2873	1029.3642	-2.4832	1.2035	-0.17754	0.38587	1.0742	1.591	-0.0592	0.0182	-0.0073	-0.0462	0.0165	0.9585
46.6369	-9.0514	872.4215	57.4932	-315.9102	-65.6298	1000.5342	-2.321	1.4667	-0.24093	0.48714	1.091	1.8382	-0.0592	0.0182	-0.0073	-0.0462	0.0165	0.9585
46.6594	-4.2501	843.6606	55.5505	-305.9731	-60.9463	961.6308	-2.1681	1.2908	-0.28816	0.43608	1.0905	1.581	-0.0592	0.0182	-0.0073	-0.0462	0.0165	0.9585
46.682	1.4473	810.784	53.1004	-294.6299	-55.39	917.6695	-2.0314	0.63497	-0.31242	0.21682	1.0666	0.7653	-0.0592	0.0182	-0.0073	-0.0462	0.0165	0.9585
46.7046	7.8345	778.404	50.3813	-283.5214	-49.2942	874.0621	-1.8955	-0.51313	-0.30505	-0.17594	1.0056	-0.62986	-0.0592	0.0182	-0.0073	-0.0462	0.0165	0.9585
46.7271	14.6147	750.6082	47.688	-274.0956	-43.0866	835.5952	-1.7303	-2.1126	-0.25715	-0.72778	0.88676	-2.5662	-0.0592	0.0182	-0.0073	-0.0462	0.0165	0.9585
46.7497	21.464	730.2704	45.296	-267.3662	-37.1842	805.6357	-1.4951	-4.0224	-0.16052	-1.3895	0.68644	-4.888	-0.0592	0.0182	-0.0073	-0.0462	0.0165	0.9585
46.7723	28.0753	718.626	43.4168	-263.7593	-31.9284	785.6633	-1.1434	-5.9476	-0.0097684	-2.0576	0.38251	-7.2452	-0.0592	0.0182	-0.0073	-0.0462	0.0165	0.9585
46.7949	34.196	715.1487	42.1913	-263.0654	-27.5667	775.1545	-0.63005	-7.3724	0.19468	-2.5499	-0.0407	-9.0098	-0.0592	0.0182	-0.0073	-0.0462	0.0165	0.9585
46.8174	39.649	717.7745	41.6908	-264.5177	-24.2523	771.8649	0.076407	-7.4909	0.44087	-2.5809	-0.58045	-9.2005	-0.0592	0.0182	-0.0073	-0.0462	0.0165	0.9585
46.84	44.3411	723.4592	41.8997	-266.9904	-22.0268	772.4721	0.97501	-5.1573	0.69995	-1.7459	-1.1985	-6.4245	-0.0592	0.0182	-0.0073	-0.0462	0.0165	0.9585
46.8626	48.233	728.801	42.712	-269.2254	-20.8218	773.2965	2.0052	1.1139	0.91834	0.47788	-1.7999	1.1268	-0.0592	0.0182	-0.0073	-0.0462	0.0165	0.9585
46.8851	51.2631	730.5098	43.9405	-270.0039	-20.4912	770.851	3.0128	13.0484	1.0067	4.697	-2.2096	15.5658	-0.0592	0.0182	-0.0073	-0.0462	0.0165	0.9585
46.9077	53.2919	725.749	45.3211	-268.2744	-20.8333	762.215	3.7093	32.3699	0.83409	11.5157	-2.1552	39.0143	-0.0592	0.0182	-0.0073	-0.0462	0.0165	0.9585
46.9303	54.101	712.3784	46.5396	-263.245	-21.6155	745.2705	3.6379	60.3555	0.22475	21.3781	-1.2507	73.0629	-0.0592	0.0182	-0.0073	-0.0462	0.0165	0.9585
46.9529	53.4304	689.0682	47.276	-254.4281	-22.6073	718.7866	2.1999	97.2673	-1.0439	34.3649	0.99024	118.0802	-0.0592	0.0182	-0.0073	-0.0462	0.0165	0.9585
46.9754	51.0662	655.3864	47.248	-241.6742	-23.5983	682.4529	-0.91899	141.9228	-3.2285	50.0385	4.9868	172.6632	-0.0592	0.0182	-0.0073	-0.0462	0.0165	0.9585
